<svg xmlns="http://www.w3.org/2000/svg" width="48.06" height="43" viewBox="0 0 48.06 43">
  <path id="Heart" d="M62.5,976.9a10.818,10.818,0,0,1,5.7,1.7c5.6,3.6,7.5,11.6,4.2,17.9-2.9,5.6-16,16-19.9,19a1.69,1.69,0,0,1-.5.2.646.646,0,0,1-.5-.2c-3.9-3.1-17.1-13.4-19.9-19-3.2-6.3-1.3-14.3,4.2-17.9a10.56,10.56,0,0,1,5.7-1.7,11.07,11.07,0,0,1,8.9,4.8L52,984l1.6-2.2a11.052,11.052,0,0,1,8.9-4.9m0-2.1A13.018,13.018,0,0,0,52,980.4a13.018,13.018,0,0,0-10.5-5.6,12.748,12.748,0,0,0-6.7,2c-6.5,4.2-8.7,13.4-4.9,20.7,3,5.9,15.9,16.1,20.5,19.7a2.708,2.708,0,0,0,3.4,0c4.6-3.6,17.5-13.8,20.5-19.7,3.7-7.2,1.5-16.5-4.9-20.7a13.993,13.993,0,0,0-6.9-2Z" transform="translate(-28.037 -974.8)" fill="#262627"/>
</svg>
