<svg xmlns="http://www.w3.org/2000/svg" width="42.099" height="42.245" viewBox="0 0 42.099 42.245">
  <g id="Group_44" data-name="Group 44" transform="translate(-273 -263)">
    <path id="Path_79" data-name="Path 79" d="M158.861,471.12a18.68,18.68,0,0,0-1.471,27.593h0c.737.774,1.558,1.468,2.34,2.2h0c-.165,2.021-.043,4.045-.063,6.068h0c0,.419-.179.881.159,1.264h0c2.232-.925,4.244-2.261,6.366-3.394h0a2.252,2.252,0,0,1,1.679-.242h0a22.016,22.016,0,0,0,17.018-2.783h0c10.673-6.707,12.358-20.888,3.542-29.626h0a21.838,21.838,0,0,0-15.394-6.2h0A21.823,21.823,0,0,0,158.861,471.12Z" transform="translate(121 -203)"/>
    <path id="Path_80" data-name="Path 80" d="M164.27,594.18c3.466-3.7,6.844-7.291,10.2-10.906h0c.418-.451.637-.284.958.057h0c1.424,1.512,2.893,2.984,4.28,4.53h0a1.057,1.057,0,0,0,1.594.216h0c2.489-1.456,5.015-2.849,7.526-4.267h0a.556.556,0,0,1,.684.027h0c-2.852,3.469-6.061,6.6-9.078,9.905h0c-1.188,1.3-1.2,1.288-2.392.01h0c-1.213-1.3-2.448-2.589-3.63-3.92h0a.81.81,0,0,0-1.211-.186h0c-2.515,1.4-5.054,2.754-7.59,4.115h0a2.2,2.2,0,0,1-1.12.434h0A1.5,1.5,0,0,1,164.27,594.18Z" transform="translate(116.976 -304.883)" fill="#fff"/>
  </g>
</svg>
