<svg xmlns="http://www.w3.org/2000/svg" width="45.183" height="42" viewBox="0 0 45.183 42">
  <path id="Feed_" data-name="Feed " d="M56.081,1308.749a1.029,1.029,0,0,1-1.027-1.027v-15.3a3.186,3.186,0,0,1,.924-2.259l19-19.1a1.027,1.027,0,0,1,1.232,0l19,19.1a3.02,3.02,0,0,1,.924,2.259v15.3a1.029,1.029,0,0,1-1.027,1.027H82.78a1.029,1.029,0,0,1-1.027-1.027v-9.242a6.161,6.161,0,0,0-12.323,0v9.242a1.029,1.029,0,0,1-1.027,1.027H56.081M75.592,1268.7a3.262,3.262,0,0,0-2.054.821l-19,19.1a5.284,5.284,0,0,0-1.54,3.7v15.3a3.09,3.09,0,0,0,3.081,3.081H68.4a3.089,3.089,0,0,0,3.081-3.081v-9.242a4.108,4.108,0,0,1,8.215,0v9.242a3.09,3.09,0,0,0,3.081,3.081H95.1a3.09,3.09,0,0,0,3.081-3.081v-15.3a5.211,5.211,0,0,0-1.54-3.7l-19-19a2.906,2.906,0,0,0-2.054-.924" transform="translate(-53 -1268.7)" fill="#262627"/>
</svg>
