<svg xmlns="http://www.w3.org/2000/svg" width="48.694" height="42.139" viewBox="0 0 48.694 42.139">
  <path id="Heart" d="M538.359,1272.418a10.493,10.493,0,0,1,5.655,1.663c5.545,3.438,7.541,11.2,4.214,17.3-2.329,4.325-11.976,12.42-20.182,18.63a.548.548,0,0,1-.333.111.407.407,0,0,1-.333-.111c-8.206-6.1-17.854-14.3-20.182-18.63-3.216-6.1-1.331-13.862,4.214-17.3a10.493,10.493,0,0,1,5.655-1.663,10.846,10.846,0,0,1,8.871,4.657l1.774,2.44,1.774-2.44a11.146,11.146,0,0,1,8.871-4.657m0-2.218a13.507,13.507,0,0,0-10.756,5.545,13.507,13.507,0,0,0-10.757-5.545,13.288,13.288,0,0,0-6.875,2c-6.543,4.1-8.76,13.2-4.99,20.293,3.1,5.766,16.19,15.858,20.848,19.3a3.3,3.3,0,0,0,1.663.554,2.987,2.987,0,0,0,1.663-.554c4.768-3.548,17.743-13.529,20.848-19.3,3.77-7.1,1.552-16.19-4.99-20.293a12,12,0,0,0-6.653-2Z" transform="translate(-503.144 -1270.2)" fill="#262627"/>
</svg>
