<svg xmlns="http://www.w3.org/2000/svg" width="42" height="42" viewBox="0 0 42 42">
  <g id="Group_41" data-name="Group 41" transform="translate(-166 -588)">
    <g id="Ellipse_11" data-name="Ellipse 11" transform="translate(166 588)" stroke="#000" stroke-width="2">
      <circle cx="21" cy="21" r="21" stroke="none"/>
      <circle cx="21" cy="21" r="20" fill="none"/>
    </g>
    <g id="Intersection_2" data-name="Intersection 2" transform="translate(170.203 613.964)" fill="#fff">
      <path d="M 16.91459655761719 13.50890064239502 C 13.68288612365723 13.50890064239502 10.59891605377197 12.76226997375488 7.748355865478516 11.28975009918213 C 5.174038410186768 9.959931373596191 2.88586688041687 8.053896903991699 1.103719592094421 5.759286403656006 C 2.061295032501221 2.934512376785278 4.729788303375244 1.000000357627869 7.750795841217041 1.000000357627869 L 26.07840538024902 1.000000357627869 C 29.09880638122559 1.000000357627869 31.76716613769531 2.934182643890381 32.72519683837891 5.758606433868408 C 30.94317626953125 8.053545951843262 28.65510559082031 9.959775924682617 26.08082580566406 11.2896900177002 C 23.23042678833008 12.76224994659424 20.14645576477051 13.50890064239502 16.91459655761719 13.50890064239502 Z" stroke="none"/>
      <path d="M 7.750795364379883 2 C 5.341215133666992 2 3.193275451660156 3.43464183807373 2.244132995605469 5.583813667297363 C 3.882781982421875 7.569380283355713 5.926885604858398 9.223285675048828 8.207315444946289 10.40129089355469 C 10.91459655761719 11.79980087280273 13.84414672851562 12.50890064239502 16.91459655761719 12.50890064239502 C 19.98518562316895 12.50890064239502 22.91472625732422 11.79977989196777 25.62183570861816 10.40124034881592 C 27.90221405029297 9.223165512084961 29.94619560241699 7.569116115570068 31.5847282409668 5.58328914642334 C 30.6352710723877 3.434345245361328 28.48749923706055 2 26.07840538024902 2 L 7.750795364379883 2 M 7.750795364379883 0 L 26.07840538024902 0 C 29.79371643066406 0 32.91919708251953 2.52776050567627 33.82902526855469 5.956940650939941 C 30.00534629821777 11.1441707611084 23.85293579101562 14.50890064239502 16.91459655761719 14.50890064239502 C 9.976436614990234 14.50890064239502 3.823795318603516 11.14410972595215 -5.340576171875e-05 5.957779884338379 C 0.9092674255371094 2.527840614318848 4.034946441650391 0 7.750795364379883 0 Z" stroke="none" fill="#000"/>
    </g>
    <g id="Ellipse_13" data-name="Ellipse 13" transform="translate(177 593)" fill="#fff" stroke="#fff" stroke-width="2">
      <ellipse cx="10" cy="9.5" rx="10" ry="9.5" stroke="none"/>
      <ellipse cx="10" cy="9.5" rx="9" ry="8.5" fill="none"/>
    </g>
  </g>
</svg>
