<svg xmlns="http://www.w3.org/2000/svg" width="55" height="55" viewBox="0 0 55 55">
  <g id="Group_40" data-name="Group 40" transform="translate(-166 -515)">
    <g id="Ellipse_8" data-name="Ellipse 8" transform="translate(166 515)" fill="#fff" stroke="#000" stroke-width="2">
      <circle cx="27.5" cy="27.5" r="27.5" stroke="none"/>
      <circle cx="27.5" cy="27.5" r="26.5" fill="none"/>
    </g>
    <g id="Intersection_1" data-name="Intersection 1" transform="translate(2686.153 513)" fill="#fff">
      <path d="M -2492.499755859375 53.99990081787109 C -2494.64794921875 53.99990081787109 -2496.784912109375 53.74227905273438 -2498.850830078125 53.23419189453125 C -2500.857177734375 52.74074935913086 -2502.806640625 52.00897979736328 -2504.64501953125 51.05921936035156 C -2508.1044921875 49.2720947265625 -2511.174072265625 46.6993408203125 -2513.549560546875 43.60092163085938 C -2512.30029296875 39.69124603271484 -2508.645263671875 37 -2504.500244140625 37 L -2480.5 37 C -2476.3544921875 37 -2472.69921875 39.69096755981445 -2471.449951171875 43.60023880004883 C -2473.8251953125 46.69931030273438 -2476.89453125 49.27197265625 -2480.35400390625 51.05928039550781 C -2482.192626953125 52.00904083251953 -2484.14208984375 52.74079895019531 -2486.1484375 53.23423004150391 C -2488.21435546875 53.74229049682617 -2490.351318359375 53.99990081787109 -2492.499755859375 53.99990081787109 Z" stroke="none"/>
      <path d="M -2504.500244140625 38 C -2508.03369140625 38 -2511.1689453125 40.18481063842773 -2512.424072265625 43.41608047485352 C -2510.186767578125 46.20938491821289 -2507.3564453125 48.53294372558594 -2504.18603515625 50.17076873779297 C -2500.55224609375 52.04804229736328 -2496.620361328125 52.99990081787109 -2492.499755859375 52.99990081787109 C -2488.37890625 52.99990081787109 -2484.44677734375 52.04806137084961 -2480.81298828125 50.17082977294922 C -2477.642822265625 48.53296661376953 -2474.8125 46.20913696289062 -2472.575439453125 43.41549301147461 C -2473.830810546875 40.18457794189453 -2476.966064453125 38 -2480.5 38 L -2504.500244140625 38 M -2504.500244140625 36 L -2480.5 36 C -2475.63427734375 36 -2471.541015625 39.30934906005859 -2470.349853515625 43.80091857910156 C -2475.35693359375 50.59375 -2483.41357421875 54.99990081787109 -2492.499755859375 54.99990081787109 C -2501.58544921875 54.99990081787109 -2509.642333984375 50.59334945678711 -2514.649658203125 43.80170059204102 C -2513.458740234375 39.31013107299805 -2509.365966796875 36 -2504.500244140625 36 Z" stroke="none" fill="#000"/>
    </g>
    <g id="Ellipse_10" data-name="Ellipse 10" transform="translate(181 521)" fill="#fff" stroke="#000" stroke-width="2">
      <circle cx="13" cy="13" r="13" stroke="none"/>
      <circle cx="13" cy="13" r="12" fill="none"/>
    </g>
  </g>
</svg>
