<svg xmlns="http://www.w3.org/2000/svg" width="42" height="42" viewBox="0 0 42 42">
  <g id="Group_40" data-name="Group 40" transform="translate(-166 -515)">
    <g id="Ellipse_8" data-name="Ellipse 8" transform="translate(166 515)" fill="#fff" stroke="#000" stroke-width="2">
      <circle cx="21" cy="21" r="21" stroke="none"/>
      <circle cx="21" cy="21" r="20" fill="none"/>
    </g>
    <g id="Intersection_1" data-name="Intersection 1" transform="translate(170.227 541.115)" fill="#fff">
      <path d="M 17.0127067565918 13.5935001373291 C 13.76107597351074 13.5935001373291 10.65827560424805 12.84230041503906 7.790485858917236 11.36077976226807 C 5.199487209320068 10.02224826812744 2.896770477294922 8.103561401367188 1.103546738624573 5.79339599609375 C 2.066676139831543 2.948339700698853 4.753688812255859 1.00000011920929 7.795795917510986 1.00000011920929 L 26.23050498962402 1.00000011920929 C 29.27261352539062 1.00000011920929 31.9596118927002 2.948305368423462 32.9227294921875 5.793334007263184 C 31.12946319580078 8.103507995605469 28.8266487121582 10.02220916748047 26.23553657531738 11.36075019836426 C 23.36759567260742 12.84228992462158 20.26458549499512 13.5935001373291 17.0127067565918 13.5935001373291 Z" stroke="none"/>
      <path d="M 7.795795440673828 2 C 5.365139007568359 2 3.198667526245117 3.448428153991699 2.243572235107422 5.61778450012207 C 3.893400192260742 7.61878490447998 5.952360153198242 9.285636901855469 8.249456405639648 10.47233009338379 C 10.97396659851074 11.87983989715576 13.92235565185547 12.5935001373291 17.0127067565918 12.5935001373291 C 20.10331726074219 12.5935001373291 23.05190658569336 11.87981986999512 25.77657699584961 10.4722900390625 C 28.07376861572266 9.285588264465332 30.1328067779541 7.618721008300781 31.78268623352051 5.617712020874023 C 30.82760620117188 3.448381423950195 28.66115188598633 2 26.23049545288086 2 L 7.795795440673828 2 M 7.795795440673828 0 L 26.23049545288086 0 C 29.96798706054688 0 33.11158752441406 2.542119979858398 34.02641677856445 5.991789817810059 C 30.18034553527832 11.20927047729492 23.9919548034668 14.5935001373291 17.0127067565918 14.5935001373291 C 10.03398513793945 14.5935001373291 3.845836639404297 11.20932006835938 -0.000152587890625 5.991849899291992 C 0.9146842956542969 2.542170524597168 4.058315277099609 0 7.795795440673828 0 Z" stroke="none" fill="#000"/>
    </g>
    <g id="Ellipse_10" data-name="Ellipse 10" transform="translate(178 520)" fill="#fff" stroke="#000" stroke-width="2">
      <ellipse cx="9.5" cy="10" rx="9.5" ry="10" stroke="none"/>
      <ellipse cx="9.5" cy="10" rx="8.5" ry="9" fill="none"/>
    </g>
  </g>
</svg>
