<svg xmlns="http://www.w3.org/2000/svg" width="44.815" height="56" viewBox="0 0 44.815 56">
  <g id="Group_43" data-name="Group 43" transform="translate(-24 -327.5)">
    <g id="Rectangle_51" data-name="Rectangle 51" transform="translate(24 338.685)" fill="#fff" stroke="#000" stroke-width="2">
      <path d="M7,0H35.815a9,9,0,0,1,9,9V22.815a22,22,0,0,1-22,22H22a22,22,0,0,1-22-22V7A7,7,0,0,1,7,0Z" stroke="none"/>
      <path d="M7,1H35.815a8,8,0,0,1,8,8V22.815a21,21,0,0,1-21,21H22a21,21,0,0,1-21-21V7A6,6,0,0,1,7,1Z" fill="none"/>
    </g>
    <path id="Path_71" data-name="Path 71" d="M0,51.5a15.032,15.032,0,0,0,30.064,0" transform="translate(31.299 302.022)" fill="#fff" stroke="#000" stroke-width="2"/>
    <g id="Path_72" data-name="Path 72" transform="translate(34.815 327.5)" fill="#fff">
      <path d="M1,11.512a10.512,10.512,0,1,1,21.024,0" stroke="none"/>
      <path d="M 11.51184844970703 -1.430511474609375e-05 C 10.74311637878418 -1.430511474609375e-05 9.98588752746582 0.07482719421386719 9.248482704162598 0.2210617065429688 C 8.511077880859375 0.3672962188720703 7.793497085571289 0.5849237442016602 7.104061126708984 0.8704986572265625 C 6.41462516784668 1.156073570251465 5.75333309173584 1.50959587097168 5.128505706787109 1.927618026733398 C 4.503678321838379 2.345639228820801 3.915316104888916 2.828161239624023 3.371738433837891 3.371736526489258 C 2.828163385391235 3.915311336517334 2.34564208984375 4.50367259979248 1.927621126174927 5.128499031066895 C 1.509600281715393 5.753325462341309 1.156079769134521 6.414617538452148 0.8705059885978699 7.104053497314453 C 0.5849322080612183 7.793489933013916 0.3673053383827209 8.511070251464844 0.2210718989372253 9.24847412109375 C 0.07483845949172974 9.985878944396973 -1.549720764160156e-06 10.7431058883667 -1.549720764160156e-06 11.51183605194092 L 1.999998450279236 11.51183605194092 C 1.999998450279236 10.20062351226807 2.266685962677002 8.950527191162109 2.74866795539856 7.812938690185547 C 3.230649948120117 6.675350189208984 3.927926301956177 5.650270462036133 4.789104461669922 4.789092063903809 C 5.650282859802246 3.927914142608643 6.675362586975098 3.230637550354004 7.81295108795166 2.748655319213867 C 8.950538635253906 2.266674041748047 10.20063591003418 1.999985694885254 11.51184844970703 1.999985694885254 C 12.82306098937988 1.999985694885254 14.07315826416016 2.266674041748047 15.2107458114624 2.748655319213867 C 16.34833335876465 3.230637550354004 17.3734130859375 3.927914142608643 18.23459243774414 4.789092063903809 C 19.09576988220215 5.650270462036133 19.79304504394531 6.675350189208984 20.27502822875977 7.812938690185547 C 20.75701141357422 8.950527191162109 21.0236988067627 10.20062351226807 21.0236988067627 11.51183605194092 L 23.0236988067627 11.51183605194092 C 23.0236988067627 10.7431058883667 22.94886016845703 9.985878944396973 22.80262565612793 9.24847412109375 C 22.65639114379883 8.511070251464844 22.43876457214355 7.793489933013916 22.15319061279297 7.104053497314453 C 21.86761665344238 6.414617538452148 21.51409530639648 5.753325462341309 21.0960750579834 5.128499031066895 C 20.67805480957031 4.50367259979248 20.19553375244141 3.915311336517334 19.65195846557617 3.371736526489258 C 19.10838317871094 2.828161239624023 18.52002143859863 2.345639228820801 17.89519500732422 1.927618026733398 C 17.2703685760498 1.50959587097168 16.60907745361328 1.156073570251465 15.91963958740234 0.8704986572265625 C 15.23020267486572 0.5849237442016602 14.51262092590332 0.3672962188720703 13.77521514892578 0.2210617065429688 C 13.03781032562256 0.07482719421386719 12.28058052062988 -1.430511474609375e-05 11.51184844970703 -1.430511474609375e-05 Z" stroke="none" fill="#000"/>
    </g>
  </g>
</svg>
