<svg xmlns="http://www.w3.org/2000/svg" width="44.815" height="56.5" viewBox="0 0 44.815 56.5">
  <g id="Group_42" data-name="Group 42" transform="translate(-104 -327)">
    <g id="Rectangle_52" data-name="Rectangle 52" transform="translate(104 338.685)" stroke="#000" stroke-width="2">
      <path d="M7,0H35.815a9,9,0,0,1,9,9V22.815a22,22,0,0,1-22,22H22a22,22,0,0,1-22-22V7A7,7,0,0,1,7,0Z" stroke="none"/>
      <path d="M7,1H35.815a8,8,0,0,1,8,8V22.815a21,21,0,0,1-21,21H22a21,21,0,0,1-21-21V7A6,6,0,0,1,7,1Z" fill="none"/>
    </g>
    <path id="Path_73" data-name="Path 73" d="M0,51.5a15.032,15.032,0,0,0,30.064,0" transform="translate(111.299 302.022)" fill="none" stroke="#fff" stroke-width="3"/>
    <g id="Path_74" data-name="Path 74" transform="translate(114.315 327)" fill="#fff">
      <path d="M1.5,12.012a10.512,10.512,0,1,1,21.024,0" stroke="none"/>
      <path d="M 12.01184844970703 -1.430511474609375e-05 C 11.2097282409668 -1.430511474609375e-05 10.41961097717285 0.07807731628417969 9.650177955627441 0.2306632995605469 C 8.880744934082031 0.3832483291625977 8.131997108459473 0.6103286743164062 7.412615776062012 0.9083070755004883 C 6.693234443664551 1.20628547668457 6.003220558166504 1.575160980224609 5.351255416870117 2.011338233947754 C 4.699289798736572 2.447515487670898 4.085373401641846 2.950993537902832 3.5181884765625 3.518176078796387 C 2.951003551483154 4.085361003875732 2.447524070739746 4.699276924133301 2.011346578598022 5.351242542266846 C 1.575169086456299 6.003208160400391 1.20629346370697 6.693222522735596 0.9083159565925598 7.412603855133057 C 0.6103384494781494 8.131984710693359 0.3832590579986572 8.880733489990234 0.2306740283966064 9.650165557861328 C 0.07808899879455566 10.41959857940674 -1.549720764160156e-06 11.20971584320068 -1.549720764160156e-06 12.01183605194092 L 2.999998569488525 12.01183605194092 C 2.999998569488525 10.7695484161377 3.252667188644409 9.585164070129395 3.70931339263916 8.507373809814453 C 4.165959358215332 7.429584503173828 4.826582908630371 6.458389282226562 5.642492294311523 5.642479419708252 C 6.458401679992676 4.826569557189941 7.429596900939941 4.165946483612061 8.507387161254883 3.709300994873047 C 9.585176467895508 3.252655029296875 10.76956081390381 2.999985694885254 12.01184844970703 2.999985694885254 C 13.25413608551025 2.999985694885254 14.43852043151855 3.252655029296875 15.5163106918335 3.709300994873047 C 16.59410095214844 4.165946483612061 17.5652961730957 4.826569557189941 18.38120460510254 5.642478942871094 C 19.19711303710938 6.458388328552246 19.85773658752441 7.42958402633667 20.31438446044922 8.507373809814453 C 20.77103042602539 9.585164070129395 21.0236988067627 10.7695484161377 21.0236988067627 12.01183605194092 L 24.0236988067627 12.01183605194092 C 24.0236988067627 11.20971584320068 23.94560813903809 10.41959857940674 23.79302215576172 9.650165557861328 C 23.64043807983398 8.880733489990234 23.41335678100586 8.131984710693359 23.11537933349609 7.412603855133057 C 22.81740188598633 6.693222522735596 22.44852638244629 6.003208160400391 22.01234817504883 5.351242542266846 C 21.576171875 4.699276924133301 21.07269287109375 4.085361003875732 20.50550842285156 3.518176078796387 C 19.93832397460938 2.950993537902832 19.32440757751465 2.447515487670898 18.67244338989258 2.011338233947754 C 18.02047729492188 1.575160980224609 17.3304615020752 1.20628547668457 16.61108016967773 0.9083070755004883 C 15.89169883728027 0.6103286743164062 15.14295101165771 0.3832483291625977 14.3735179901123 0.2306632995605469 C 13.60408592224121 0.07807731628417969 12.81396865844727 -1.430511474609375e-05 12.01184844970703 -1.430511474609375e-05 Z" stroke="none" fill="#000"/>
    </g>
  </g>
</svg>
