<svg xmlns="http://www.w3.org/2000/svg" width="33.63" height="42.273" viewBox="0 0 33.63 42.273">
  <g id="Group_43" data-name="Group 43" transform="translate(-24 -327.5)">
    <g id="Rectangle_51" data-name="Rectangle 51" transform="translate(24 336.143)" fill="#fff" stroke="#000" stroke-width="2">
      <path d="M5.35,0h21.4A6.879,6.879,0,0,1,33.63,6.879v9.936A16.815,16.815,0,0,1,16.815,33.63h0A16.815,16.815,0,0,1,0,16.815V5.35A5.35,5.35,0,0,1,5.35,0Z" stroke="none"/>
      <path d="M5.519,1H26.605A6.025,6.025,0,0,1,32.63,7.025v9.79A15.815,15.815,0,0,1,16.815,32.63h0A15.815,15.815,0,0,1,1,16.815V5.519A4.519,4.519,0,0,1,5.519,1Z" fill="none"/>
    </g>
    <path id="Path_71" data-name="Path 71" d="M0,51.5a11.28,11.28,0,0,0,22.56,0" transform="translate(29.478 295.777)" fill="#fff" stroke="#000" stroke-width="2"/>
    <g id="Path_72" data-name="Path 72" transform="translate(31.866 327.5)" fill="#fff">
      <path d="M1,8.888a7.888,7.888,0,1,1,15.777,0" stroke="none"/>
      <path d="M 8.888259887695312 -1.621246337890625e-05 C 7.663010597229004 -1.621246337890625e-05 6.494869232177734 0.2491874694824219 5.431860446929932 0.6995716094970703 C 4.368851661682129 1.149955272674561 3.410975456237793 1.801519393920898 2.606255531311035 2.606239318847656 C 1.801535367965698 3.410959243774414 1.149971604347229 4.36883544921875 0.6995878219604492 5.431844234466553 C 0.2492040991783142 6.494853019714355 3.576278686523438e-07 7.662994384765625 3.576278686523438e-07 8.88824462890625 L 2.000000476837158 8.88824462890625 C 2.000000476837158 7.938694000244141 2.193129062652588 7.033402919769287 2.542169094085693 6.209588050842285 C 2.891209125518799 5.385773181915283 3.396160364151001 4.643434524536133 4.019805431365967 4.019789218902588 C 4.643450736999512 3.396143913269043 5.385789394378662 2.89119291305542 6.209604263305664 2.542153358459473 C 7.033419132232666 2.193113327026367 7.93871021270752 1.999984264373779 8.888259887695312 1.999984264373779 C 9.837810516357422 1.999984264373779 10.74310207366943 2.193113327026367 11.56691741943359 2.542153358459473 C 12.39073181152344 2.89119291305542 13.13307094573975 3.396143913269043 13.75671577453613 4.019789218902588 C 14.38036060333252 4.643434524536133 14.88531112670898 5.385773181915283 15.23435115814209 6.209588050842285 C 15.5833911895752 7.033402919769287 15.77652072906494 7.938694000244141 15.77652072906494 8.88824462890625 L 17.77651977539062 8.88824462890625 C 17.77651977539062 7.662994384765625 17.52731704711914 6.494853019714355 17.07693290710449 5.431844234466553 C 16.62654876708984 4.36883544921875 15.97498512268066 3.410959243774414 15.17026519775391 2.606239318847656 C 14.36554527282715 1.801519393920898 13.40766906738281 1.149955272674561 12.34465980529785 0.6995716094970703 C 11.28165149688721 0.2491874694824219 10.11351013183594 -1.621246337890625e-05 8.888259887695312 -1.621246337890625e-05 Z" stroke="none" fill="#000"/>
    </g>
  </g>
</svg>
