<svg xmlns="http://www.w3.org/2000/svg" width="34.222" height="43.5" viewBox="0 0 34.222 43.5">
  <g id="Group_42" data-name="Group 42" transform="translate(-104 -327)">
    <g id="Rectangle_52" data-name="Rectangle 52" transform="translate(104 336.278)" stroke="#000" stroke-width="2">
      <path d="M5.444,0H27.222a7,7,0,0,1,7,7V17.111A17.111,17.111,0,0,1,17.111,34.222h0A17.111,17.111,0,0,1,0,17.111V5.444A5.444,5.444,0,0,1,5.444,0Z" stroke="none"/>
      <path d="M5.6,1H27.085a6.138,6.138,0,0,1,6.138,6.138v9.974A16.111,16.111,0,0,1,17.111,33.222h0A16.111,16.111,0,0,1,1,17.111V5.6A4.6,4.6,0,0,1,5.6,1Z" fill="none"/>
    </g>
    <path id="Path_73" data-name="Path 73" d="M0,51.5a11.479,11.479,0,0,0,22.958,0" transform="translate(109.574 296.107)" fill="none" stroke="#fff" stroke-width="3"/>
    <g id="Path_74" data-name="Path 74" transform="translate(111.522 327)" fill="#fff">
      <path d="M1.5,9.527a8.027,8.027,0,1,1,16.054,0" stroke="none"/>
      <path d="M 9.527229309082031 -1.33514404296875e-05 C 8.213896751403809 -1.33514404296875e-05 6.96177864074707 0.2671051025390625 5.822350978851318 0.7498664855957031 C 4.682923316955566 1.232627868652344 3.656186103820801 1.931032180786133 2.793615579605103 2.79360294342041 C 1.931044936180115 3.656173706054688 1.232640862464905 4.682910919189453 0.7498794198036194 5.822338104248047 C 0.267117977142334 6.961765766143799 -7.152557373046875e-07 8.213884353637695 -7.152557373046875e-07 9.527216911315918 L 2.999999284744263 9.527216911315918 C 2.999999284744263 8.627436637878418 3.183005571365356 7.769594669342041 3.513751268386841 6.988958358764648 C 3.844496965408325 6.208321571350098 4.322982311248779 5.504890441894531 4.9139404296875 4.913931846618652 C 5.504898548126221 4.322973251342773 6.208329200744629 3.844486713409424 6.988966464996338 3.513740062713623 C 7.769603729248047 3.182993412017822 8.627447128295898 2.99998664855957 9.527229309082031 2.99998664855957 C 10.42701148986816 2.99998664855957 11.28485488891602 3.182993412017822 12.06549167633057 3.513740062713623 C 12.84612846374512 3.844486713409424 13.54955959320068 4.322973251342773 14.14051818847656 4.913931846618652 C 14.73147583007812 5.504890441894531 15.2099609375 6.208321571350098 15.54070663452148 6.988958358764648 C 15.87145328521729 7.769594669342041 16.05445861816406 8.627436637878418 16.05445861816406 9.527216911315918 L 19.05445861816406 9.527216911315918 C 19.05445861816406 8.213884353637695 18.78734016418457 6.961766242980957 18.30457878112793 5.822338581085205 C 17.82181739807129 4.682910919189453 17.1234130859375 3.656173706054688 16.26084327697754 2.79360294342041 C 15.39827251434326 1.931032180786133 14.3715353012085 1.232627868652344 13.23210716247559 0.7498664855957031 C 12.09267997741699 0.2671051025390625 10.84056186676025 -1.33514404296875e-05 9.527229309082031 -1.33514404296875e-05 Z" stroke="none" fill="#000"/>
    </g>
  </g>
</svg>
